<svg width="56" height="65" viewBox="0 0 56 65" fill="none" xmlns="http://www.w3.org/2000/svg">
<path fill-rule="evenodd" clip-rule="evenodd" d="M30.0798 47.0502C31.772 51.3621 33.1709 54.9268 33.6487 56.2987C34.9673 60.0852 34.478 62.5137 32.9858 63.495C30.8041 64.9296 27.9837 64.1011 24.6829 60.3906C22.4823 58.0053 16.6639 50.5115 11.9878 42.5605C8.68702 37.2598 5.3592 30.7849 1.38204 22.9344C-1.95334 13.9376 2.95266 11.0942 9.82931 8.44382C17.2561 5.52844 27.9837 2.61305 34.0351 1.55292C38.4362 0.757812 45.2344 0.0670495 46.6881 2.61305C47.5133 4.20326 46.8847 6.67188 42.9287 9.19619C42.4574 9.48001 41.5246 10.0291 40.3223 10.7367C35.9113 13.3331 27.8732 18.0644 25.6943 19.6634C21.8572 22.4794 21.7476 25.5177 22.8478 28.1681C24.6297 33.1626 27.6556 40.8732 30.0798 47.0502ZM46.8281 42.2516C47.7409 44.6568 48.4955 46.6451 48.7532 47.4104C49.1176 48.4923 49.1412 49.8479 49.101 50.1281C48.858 51.8252 47.0281 52.0624 45.6675 51.251C45.1217 50.9256 44.5411 50.4185 43.9168 49.6928C42.7297 48.3623 39.5911 44.1822 37.0686 39.7471C35.2881 36.7903 33.4929 33.1786 31.3475 28.7996C29.5483 23.7811 32.1948 22.195 35.9043 20.7166C39.9105 19.0904 45.6973 17.4642 48.9617 16.8729C49.0904 16.8488 49.2219 16.8239 49.3558 16.7985C51.693 16.3554 54.7521 15.7755 55.7872 17.4642C56.3289 18.3481 55.8932 19.7282 53.7592 21.1363C53.3479 21.3925 52.3368 22.0302 51.1108 22.8035C48.799 24.2618 45.7229 26.2021 44.4624 26.975C42.2367 28.3055 42.3334 30.2405 42.9269 31.7189C43.8881 34.505 45.5204 38.806 46.8281 42.2516Z" fill="#FF8600"/>
</svg>
